<svg width="56" height="48" viewBox="0 0 56 48" fill="none" xmlns="http://www.w3.org/2000/svg">
<path d="M5.46331 47.3133C4.09505 47.3133 2.92416 46.8548 1.95062 45.9378C0.975422 45.0192 0.487823 43.9155 0.487823 42.6267V14.5067C0.487823 13.2178 0.975422 12.1149 1.95062 11.1979C2.92416 10.2793 4.09505 9.81999 5.46331 9.81999H13.2997L17.902 5.13332H32.8285V14.5067H40.2917V21.5367H50.2427V42.6267C50.2427 43.9155 49.756 45.0192 48.7824 45.9378C47.8072 46.8548 46.6355 47.3133 45.2672 47.3133H5.46331ZM25.3653 39.1117C28.475 39.1117 31.1186 38.0868 33.2962 36.0372C35.4722 33.986 36.5601 31.4958 36.5601 28.5667C36.5601 25.6375 35.4722 23.1473 33.2962 21.0961C31.1186 19.0465 28.475 18.0217 25.3653 18.0217C22.2556 18.0217 19.6119 19.0465 17.4343 21.0961C15.2584 23.1473 14.1704 25.6375 14.1704 28.5667C14.1704 31.4958 15.2584 33.986 17.4343 36.0372C19.6119 38.0868 22.2556 39.1117 25.3653 39.1117ZM25.3653 34.425C23.6239 34.425 22.1519 33.8587 20.9495 32.7261C19.7471 31.5935 19.1459 30.207 19.1459 28.5667C19.1459 26.9263 19.7471 25.5399 20.9495 24.4072C22.1519 23.2746 23.6239 22.7083 25.3653 22.7083C27.1067 22.7083 28.5786 23.2746 29.781 24.4072C30.9834 25.5399 31.5846 26.9263 31.5846 28.5667C31.5846 30.207 30.9834 31.5935 29.781 32.7261C28.5786 33.8587 27.1067 34.425 25.3653 34.425ZM45.2672 14.5067V9.81999H40.2917V5.13332H45.2672V0.446655H50.2427V5.13332H55.2182V9.81999H50.2427V14.5067H45.2672Z" fill="#11DD62"/>
</svg>
