<svg width="30" height="30" viewBox="0 0 30 30" fill="none" xmlns="http://www.w3.org/2000/svg">
<path d="M18.2933 20.6842L22.3942 16.5833H7.08333V13.4167H22.3942L18.2933 9.31583L20.5417 7.08333L28.4583 15L20.5417 22.9167L18.2933 20.6842ZM26.0833 0.75C26.9232 0.75 27.7286 1.08363 28.3225 1.6775C28.9164 2.27136 29.25 3.07681 29.25 3.91667V11.3108L26.0833 8.14417V3.91667H3.91667V26.0833H26.0833V21.8558L29.25 18.6892V26.0833C29.25 26.9232 28.9164 27.7286 28.3225 28.3225C27.7286 28.9164 26.9232 29.25 26.0833 29.25H3.91667C3.07681 29.25 2.27136 28.9164 1.6775 28.3225C1.08363 27.7286 0.75 26.9232 0.75 26.0833V3.91667C0.75 2.15917 2.15917 0.75 3.91667 0.75H26.0833Z" fill="white"/>
</svg>
