<svg width="79" height="79" viewBox="0 0 79 79" fill="none" xmlns="http://www.w3.org/2000/svg">
<path d="M39.5 0.5625C17.9975 0.5625 0.5625 17.9975 0.5625 39.5C0.5625 61.0025 17.9975 78.4375 39.5 78.4375C61.0025 78.4375 78.4375 61.0025 78.4375 39.5C78.4375 17.9975 61.0025 0.5625 39.5 0.5625ZM54.8403 51.4681L52.3546 54.8577C52.3005 54.9315 52.2324 54.9939 52.1541 55.0413C52.0759 55.0887 51.989 55.1202 51.8986 55.1339C51.8081 55.1477 51.7158 55.1434 51.627 55.1213C51.5382 55.0993 51.4547 55.0599 51.3812 55.0055L37.0056 44.5236C36.916 44.4593 36.8432 44.3744 36.7933 44.2761C36.7434 44.1778 36.7178 44.0689 36.7188 43.9587V20.0312C36.7188 19.6488 37.0316 19.3359 37.4141 19.3359H41.5946C41.977 19.3359 42.2899 19.6488 42.2899 20.0312V41.5425L54.6839 50.5033C54.9968 50.7206 55.0663 51.1552 54.8403 51.4681Z" fill="white"/>
</svg>
