<svg width="84" height="84" viewBox="0 0 84 84" fill="none" xmlns="http://www.w3.org/2000/svg">
<path d="M42 42C47.5695 42 52.911 39.7875 56.8492 35.8492C60.7875 31.911 63 26.5695 63 21C63 15.4305 60.7875 10.089 56.8492 6.15076C52.911 2.21249 47.5695 0 42 0C36.4305 0 31.089 2.21249 27.1508 6.15076C23.2125 10.089 21 15.4305 21 21C21 26.5695 23.2125 31.911 27.1508 35.8492C31.089 39.7875 36.4305 42 42 42ZM56 21C56 24.713 54.525 28.274 51.8995 30.8995C49.274 33.525 45.713 35 42 35C38.287 35 34.726 33.525 32.1005 30.8995C29.475 28.274 28 24.713 28 21C28 17.287 29.475 13.726 32.1005 11.1005C34.726 8.475 38.287 7 42 7C45.713 7 49.274 8.475 51.8995 11.1005C54.525 13.726 56 17.287 56 21ZM84 77C84 84 77 84 77 84H7C7 84 0 84 0 77C0 70 7 49 42 49C77 49 84 70 84 77ZM77 76.972C76.993 75.25 75.922 70.07 71.176 65.324C66.612 60.76 58.023 56 42 56C25.97 56 17.388 60.76 12.824 65.324C8.078 70.07 7.014 75.25 7 76.972H77Z" fill="white"/>
</svg>
