<svg width="117" height="83" viewBox="0 0 117 83" fill="none" xmlns="http://www.w3.org/2000/svg">
<path d="M69.0834 25.4343C69.0834 24.6406 69.3709 23.8239 69.946 22.9843C70.5175 22.1482 71.156 21.5979 71.8615 21.3333C74.4192 20.4513 76.9768 19.7899 79.5345 19.3489C82.0921 18.9079 84.782 18.6875 87.6043 18.6875C89.3681 18.6875 91.1109 18.7968 92.8324 19.0155C94.5505 19.2378 96.2473 19.5253 97.923 19.8781C98.7168 20.0545 99.3994 20.4954 99.9709 21.201C100.546 21.9066 100.833 22.7003 100.833 23.5823C100.833 25.0816 100.348 26.184 99.3782 26.8895C98.4081 27.5951 97.1733 27.7715 95.674 27.4187C94.4393 27.1541 93.1393 26.9548 91.7741 26.8207C90.4053 26.6902 89.0154 26.625 87.6043 26.625C85.3112 26.625 83.0622 26.8454 80.8574 27.2864C78.6525 27.7274 76.5359 28.3007 74.5074 29.0062C72.9199 29.6236 71.6199 29.5795 70.6074 28.8739C69.5914 28.1684 69.0834 27.0218 69.0834 25.4343ZM69.0834 54.5385C69.0834 53.7447 69.3709 52.9281 69.946 52.0885C70.5175 51.2524 71.156 50.702 71.8615 50.4375C74.4192 49.5555 76.9768 48.8941 79.5345 48.4531C82.0921 48.0121 84.782 47.7916 87.6043 47.7916C89.3681 47.7916 91.1109 47.901 92.8324 48.1197C94.5505 48.342 96.2473 48.6295 97.923 48.9823C98.7168 49.1586 99.3994 49.5996 99.9709 50.3052C100.546 51.0107 100.833 51.8045 100.833 52.6864C100.833 54.1857 100.348 55.2882 99.3782 55.9937C98.4081 56.6993 97.1733 56.8756 95.674 56.5229C94.4393 56.2583 93.1393 56.059 91.7741 55.9249C90.4053 55.7944 89.0154 55.7291 87.6043 55.7291C85.3112 55.7291 83.0622 55.9284 80.8574 56.3271C78.6525 56.7222 76.5359 57.2725 74.5074 57.9781C72.9199 58.5954 71.6199 58.5725 70.6074 57.9093C69.5914 57.2496 69.0834 56.126 69.0834 54.5385ZM69.0834 39.9864C69.0834 39.1927 69.3709 38.376 69.946 37.5364C70.5175 36.7003 71.156 36.15 71.8615 35.8854C74.4192 35.0034 76.9768 34.342 79.5345 33.901C82.0921 33.46 84.782 33.2395 87.6043 33.2395C89.3681 33.2395 91.1109 33.3489 92.8324 33.5676C94.5505 33.7899 96.2473 34.0774 97.923 34.4302C98.7168 34.6066 99.3994 35.0475 99.9709 35.7531C100.546 36.4586 100.833 37.2524 100.833 38.1343C100.833 39.6336 100.348 40.7361 99.3782 41.4416C98.4081 42.1472 97.1733 42.3236 95.674 41.9708C94.4393 41.7062 93.1393 41.5069 91.7741 41.3728C90.4053 41.2423 89.0154 41.177 87.6043 41.177C85.3112 41.177 83.0622 41.3975 80.8574 41.8385C78.6525 42.2795 76.5359 42.8527 74.5074 43.5583C72.9199 44.1757 71.6199 44.1316 70.6074 43.426C69.5914 42.7204 69.0834 41.5739 69.0834 39.9864ZM63.7918 69.2229C67.6723 67.3708 71.5758 65.9808 75.5022 65.053C79.4251 64.1288 83.4591 63.6666 87.6043 63.6666C90.7793 63.6666 93.889 63.9312 96.9335 64.4604C99.9744 64.9895 103.038 65.7833 106.125 66.8416V14.4541C103.215 13.2194 100.195 12.2934 97.0658 11.676C93.9331 11.0586 90.7793 10.75 87.6043 10.75C83.4591 10.75 79.3581 11.2791 75.3011 12.3375C71.2442 13.3958 67.4077 14.9833 63.7918 17.1V69.2229ZM58.5001 82.0552C57.2654 82.0552 56.0977 81.9017 54.997 81.5948C53.8928 81.2843 52.8556 80.8645 51.8855 80.3354C48.4459 78.3069 44.8299 76.7864 41.0376 75.774C37.2452 74.758 33.3647 74.25 29.3959 74.25C25.6917 74.25 22.0546 74.735 18.4845 75.7052C14.9109 76.6753 11.4924 78.0423 8.22925 79.8062C6.37717 80.7763 4.59211 80.7322 2.87408 79.6739C1.15253 78.6156 0.291748 77.0722 0.291748 75.0437V11.2791C0.291748 10.309 0.535165 9.38294 1.022 8.501C1.5053 7.61906 2.23203 6.9576 3.20216 6.51662C7.25911 4.39996 11.4924 2.81246 15.9022 1.75413C20.3119 0.695794 24.8098 0.166626 29.3959 0.166626C34.5112 0.166626 39.5171 0.828084 44.4137 2.151C49.3067 3.47392 54.0022 5.45829 58.5001 8.10413C62.998 5.45829 67.6952 3.47392 72.5918 2.151C77.4848 0.828084 82.489 0.166626 87.6043 0.166626C92.1904 0.166626 96.6883 0.695794 101.098 1.75413C105.508 2.81246 109.741 4.39996 113.798 6.51662C114.768 6.9576 115.497 7.61906 115.983 8.501C116.467 9.38294 116.708 10.309 116.708 11.2791V75.0437C116.708 77.0722 115.849 78.6156 114.131 79.6739C112.41 80.7322 110.623 80.7763 108.771 79.8062C105.508 78.0423 102.089 76.6753 98.5157 75.7052C94.9456 74.735 91.3084 74.25 87.6043 74.25C83.6355 74.25 79.755 74.758 75.9626 75.774C72.1702 76.7864 68.5543 78.3069 65.1147 80.3354C64.1445 80.8645 63.1091 81.2843 62.0085 81.5948C60.9043 81.9017 59.7348 82.0552 58.5001 82.0552Z" fill="white"/>
</svg>
